<svg width="12" height="20" viewBox="0 0 12 20" fill="none" xmlns="http://www.w3.org/2000/svg">
<path d="M6 14H8V16H6V14Z" fill="black"/>
<path d="M1 0H11V4H1V0Z" fill="black"/>
<path d="M1 16H11V20H1V16Z" fill="black"/>
<path d="M6 4H8V6H6V4Z" fill="black"/>
<path d="M4 4H6V6H4V4Z" fill="black"/>
<path d="M2 6H4V8H2V6Z" fill="black"/>
<path d="M8 6H10V8H8V6Z" fill="black"/>
<path d="M8 12H10V14H8V12Z" fill="black"/>
<path d="M7 8H12V12H7V8Z" fill="black"/>
<path d="M0 8H5V12H0V8Z" fill="black"/>
</svg>
