<svg width="24" height="24" viewBox="0 0 24 24" fill="none" xmlns="http://www.w3.org/2000/svg">
<rect x="19.2001" y="19.2002" width="2.4" height="2.40001" fill="#341E09"/>
<rect x="2.40011" y="19.2002" width="2.4" height="2.40001" fill="#341E09"/>
<rect x="2.40011" y="2.40002" width="2.4" height="2.40001" fill="#341E09"/>
<rect x="19.2001" y="2.40002" width="2.4" height="2.40001" fill="#341E09"/>
<rect x="21.5999" y="16.8" width="2.4" height="2.40001" fill="#341E09"/>
<rect x="21.5999" y="14.4" width="2.4" height="2.40001" fill="#341E09"/>
<rect x="21.5999" y="12" width="2.4" height="2.40001" fill="#341E09"/>
<rect x="21.5999" y="9.6001" width="2.4" height="2.40001" fill="#341E09"/>
<rect x="21.5999" y="7.20007" width="2.4" height="2.40001" fill="#341E09"/>
<rect x="21.5999" y="4.79993" width="2.4" height="14.4001" fill="#341E09"/>
<rect x="16.7999" y="21.6001" width="2.4" height="2.40001" fill="#341E09"/>
<rect x="14.4001" y="21.6001" width="2.4" height="2.40001" fill="#341E09"/>
<rect x="12" y="21.6001" width="2.4" height="2.40001" fill="#341E09"/>
<rect x="9.59989" y="21.6001" width="2.4" height="2.40001" fill="#341E09"/>
<rect x="7.20006" y="21.6001" width="2.4" height="2.40001" fill="#341E09"/>
<rect x="4.79995" y="21.6001" width="14.4" height="2.40001" fill="#341E09"/>
<rect y="16.8" width="2.4" height="2.40001" fill="#341E09"/>
<rect y="14.4" width="2.4" height="2.40001" fill="#341E09"/>
<rect y="12" width="2.4" height="2.40001" fill="#341E09"/>
<rect y="9.6001" width="2.4" height="2.40001" fill="#341E09"/>
<rect y="7.20007" width="2.4" height="2.40001" fill="#341E09"/>
<rect y="4.79993" width="2.4" height="14.4001" fill="#341E09"/>
<rect x="16.7999" width="2.4" height="2.40001" fill="#341E09"/>
<rect x="14.4001" width="2.4" height="2.40001" fill="#341E09"/>
<rect x="12" width="2.4" height="2.40001" fill="#341E09"/>
<rect x="9.59989" width="2.4" height="2.40001" fill="#341E09"/>
<rect x="7.20006" width="2.4" height="2.40001" fill="#341E09"/>
<rect x="4.79995" width="14.4" height="2.40001" fill="#341E09"/>
<path d="M19.1998 4.80042H21.6002V19.1998H19.1998V21.6002H4.80039V19.1998H2.4V4.80042H4.80039V2.40002H19.1998V4.80042Z" fill="white"/>
</svg>
