<svg width="24" height="24" viewBox="0 0 24 24" fill="none" xmlns="http://www.w3.org/2000/svg">
<g clip-path="url(#clip0_20_37643)">
<path d="M16 2.66666H8V5.33333H16V2.66666Z" fill="#E6D7C1"/>
<path d="M18.6667 5.33334H16V8H18.6667V5.33334Z" fill="#E6D7C1"/>
<path d="M21.3333 8H18.6667V16H21.3333V8Z" fill="#E6D7C1"/>
<path d="M18.6667 16H16V18.6667H18.6667V16Z" fill="#E6D7C1"/>
<path d="M16 18.6667H8V21.3333H16V18.6667Z" fill="#E6D7C1"/>
<path d="M8.00001 16H5.33334V18.6667H8.00001V16Z" fill="#E6D7C1"/>
<path d="M5.33332 8H2.66666V16H5.33332V8Z" fill="#E6D7C1"/>
<path d="M8.00001 5.33334H5.33334V8H8.00001V5.33334Z" fill="#E6D7C1"/>
<path d="M21.3333 18.6667H18.6667V21.3333H21.3333V18.6667Z" fill="#E6D7C1"/>
<path d="M24 21.3333H21.3333V24H24V21.3333Z" fill="#E6D7C1"/>
</g>
<defs>
<clipPath id="clip0_20_37643">
<rect width="24" height="24" fill="white"/>
</clipPath>
</defs>
</svg>
