<svg width="35" height="24" viewBox="0 0 35 24" fill="none" xmlns="http://www.w3.org/2000/svg">
<path d="M16.1538 0H18.8461V24H16.1538V0Z" fill="black"/>
<path d="M18.8462 18.6667H21.5385V21.3333H18.8462V18.6667Z" fill="black"/>
<path d="M21.5385 16H24.2308V18.6667H21.5385V16Z" fill="black"/>
<path d="M32.3077 16H35V18.6667H32.3077V16Z" fill="black"/>
<path d="M29.6154 18.6667H32.3077V21.3333H29.6154V18.6667Z" fill="black"/>
<path d="M24.2308 18.6667H26.9231V21.3333H24.2308V18.6667Z" fill="black"/>
<path d="M8.07693 18.6667H10.7692V21.3333H8.07693V18.6667Z" fill="black"/>
<path d="M10.7692 16H13.4615V18.6667H10.7692V16Z" fill="black"/>
<path d="M0 16H2.69231V18.6667H0V16Z" fill="black"/>
<path d="M2.69232 18.6667H5.38463V21.3333H2.69232V18.6667Z" fill="black"/>
<path d="M18.8462 6.66667H24.2308V9.33334H18.8462V6.66667Z" fill="black"/>
<path d="M24.2308 9.33333H26.9231V12H24.2308V9.33333Z" fill="black"/>
<path d="M26.9231 12H29.6154V24H26.9231V12Z" fill="black"/>
<path d="M10.7692 6.66667H16.1538V9.33334H10.7692V6.66667Z" fill="black"/>
<path d="M8.07693 9.33333H10.7692V12H8.07693V9.33333Z" fill="black"/>
<path d="M5.38461 12H8.07692V24H5.38461V12Z" fill="black"/>
<path d="M13.4615 18.6667H16.1539V21.3333H13.4615V18.6667Z" fill="black"/>
</svg>
