<svg id="Layer_1" data-name="Layer 1" xmlns="http://www.w3.org/2000/svg" viewBox="0 0 100 100"><defs><style>.cls-1{fill:#bdbec0;}.cls-2{fill:#386a7d;}.cls-3{fill:#3f3f40;}.cls-4{fill:#447d93;}.cls-5{fill:#3e7386;}.cls-6{fill:#fcca97;}.cls-7{fill:#e0b488;}.cls-8{fill:#221f1f;}</style></defs><title>babe the blue ox</title><path class="cls-1" d="M78.7,17.11a53.69,53.69,0,0,0,6.94,1.05,30.78,30.78,0,0,0,7-.11c2.24-.34,4.56-1.05,5.81-2.86s.94-4.49.14-6.75c1.1,2.1,2.06,4.75.88,7.32s-3.9,3.78-6.3,4.55a34.21,34.21,0,0,1-7.52,1.33A57.17,57.17,0,0,1,78,21.7a2.33,2.33,0,1,1,.29-4.65,1.49,1.49,0,0,1,.36.05Z"/><path class="cls-2" d="M3.68,70.82h-2C1.72,54,3.36,43.69,6.46,41.11a2.09,2.09,0,0,1,1.7-.58L7.8,42.46a.55.55,0,0,0,.17,0S3.68,43.71,3.68,70.82Z"/><path class="cls-3" d="M5.4,71.62c0,1.49-1.21,7-2.7,7s-2.7-5.5-2.7-7a2.7,2.7,0,0,1,5.4,0Z"/><path class="cls-2" d="M27.53,79.13a2.29,2.29,0,1,0-4.58,0v9.79h4.58Z"/><path class="cls-3" d="M23,88.92v.34a2.29,2.29,0,1,0,4.58,0v-.34Z"/><path class="cls-2" d="M66.62,79.13a2.29,2.29,0,1,0-4.58,0v9.79h4.58Z"/><path class="cls-3" d="M62,88.92v.34a2.29,2.29,0,1,0,4.58,0v-.34Z"/><rect class="cls-4" x="5.85" y="30.67" width="68.89" height="51.04" rx="7.14" ry="7.14"/><path class="cls-4" d="M78.65,23.33a2.05,2.05,0,0,0,2,2.05c1.13,0,4.49-.92,4.49-2.05s-3.36-2-4.49-2A2.05,2.05,0,0,0,78.65,23.33Z"/><path class="cls-5" d="M78.76,23.33a1.33,1.33,0,0,0,1.33,1.33c.73,0,2.92-.6,2.92-1.33S80.82,22,80.09,22A1.32,1.32,0,0,0,78.76,23.33Z"/><rect class="cls-4" x="53.18" y="26.23" width="38.85" height="21.63" rx="5.38" ry="5.38"/><rect class="cls-4" x="59.45" y="16.33" width="22.18" height="17.3" rx="2.82" ry="2.82"/><path class="cls-6" d="M96.11,35.73a10.78,10.78,0,1,1-21.56,0c0-5.95,4.83-6.86,10.78-6.86S96.11,29.78,96.11,35.73Z"/><rect class="cls-7" x="73.89" y="35.1" width="23.77" height="2.83" rx="0.7" ry="0.7"/><rect class="cls-7" x="73.89" y="37.93" width="23.77" height="2.83" rx="0.7" ry="0.7"/><circle class="cls-6" cx="92.03" cy="30.17" r="3.04"/><ellipse class="cls-7" cx="93.41" cy="30.17" rx="1.31" ry="1.99"/><circle class="cls-6" cx="84.36" cy="30.17" r="3.04"/><ellipse class="cls-7" cx="84.93" cy="30.17" rx="1.31" ry="1.99"/><path class="cls-4" d="M64.41,17.42s3.32-1.64,3.39-3.11h3.54v4.77"/><path class="cls-4" d="M77.09,17.42s-3.32-1.64-3.39-3.11H70.16v4.77"/><path class="cls-4" d="M60.54,23.33a2.05,2.05,0,0,1-2,2.05c-1.13,0-4.49-.92-4.49-2.05s3.36-2,4.49-2A2.05,2.05,0,0,1,60.54,23.33Z"/><path class="cls-5" d="M60.43,23.33a1.33,1.33,0,0,1-1.33,1.33c-.73,0-2.92-.6-2.92-1.33S58.37,22,59.1,22A1.32,1.32,0,0,1,60.43,23.33Z"/><path class="cls-4" d="M17.78,79.13a2.29,2.29,0,1,0-4.58,0v9.79h4.58Z"/><path class="cls-3" d="M13.2,88.92v.34a2.29,2.29,0,1,0,4.58,0v-.34Z"/><path class="cls-4" d="M56.87,79.13a2.29,2.29,0,1,0-4.58,0v9.79h4.58Z"/><path class="cls-3" d="M52.29,88.92v.34a2.29,2.29,0,1,0,4.58,0v-.34Z"/><path class="cls-4" d="M77,46.69c0,.81-3,15.54-6.82,15.54S63.34,47.5,63.34,46.69s3-1.48,6.82-1.48S77,45.87,77,46.69Z"/><circle class="cls-4" cx="64.52" cy="24.44" r="2.15"/><circle class="cls-8" cx="64.44" cy="24.06" r="1"/><path class="cls-1" d="M62.3,21.7a57,57,0,0,1-7.63-.06,34.2,34.2,0,0,1-7.53-1.33c-2.39-.77-5.07-2-6.29-4.55s-.23-5.22.87-7.32c-.79,2.26-1.15,4.92.14,6.75s3.58,2.52,5.81,2.86a30.78,30.78,0,0,0,7,.11,54.11,54.11,0,0,0,7-1.05h0a2.33,2.33,0,1,1,1,4.54A2.38,2.38,0,0,1,62.3,21.7Z"/></svg>