<svg width="172" height="68" viewBox="0 0 172 68" fill="none" xmlns="http://www.w3.org/2000/svg">
<mask id="path-1-inside-1_227_424" fill="white">
<path d="M160 62V56H166V12H160V6H12V12H6V56H12V62H160ZM166 68H6V62H0V6H6V0H166V6H172V62H166V68Z"/>
</mask>
<path d="M160 62V56H166V12H160V6H12V12H6V56H12V62H160ZM166 68H6V62H0V6H6V0H166V6H172V62H166V68Z" fill="#341E09"/>
<path d="M160 62V66H164V62H160ZM160 56V52H156V56H160ZM166 56V60H170V56H166ZM166 12H170V8H166V12ZM160 12H156V16H160V12ZM160 6H164V2H160V6ZM12 6V2H8V6H12ZM12 12V16H16V12H12ZM6 12V8H2V12H6ZM6 56H2V60H6V56ZM12 56H16V52H12V56ZM12 62H8V66H12V62ZM166 68V72H170V68H166ZM6 68H2V72H6V68ZM6 62H10V58H6V62ZM0 62H-4V66H0V62ZM0 6V2H-4V6H0ZM6 6V10H10V6H6ZM6 0V-4H2V0H6ZM166 0H170V-4H166V0ZM166 6H162V10H166V6ZM172 6H176V2H172V6ZM172 62V66H176V62H172ZM166 62V58H162V62H166ZM160 62H164V56H160H156V62H160ZM160 56V60H166V56V52H160V56ZM166 56H170V12H166H162V56H166ZM166 12V8H160V12V16H166V12ZM160 12H164V6H160H156V12H160ZM160 6V2H12V6V10H160V6ZM12 6H8V12H12H16V6H12ZM12 12V8H6V12V16H12V12ZM6 12H2V56H6H10V12H6ZM6 56V60H12V56V52H6V56ZM12 56H8V62H12H16V56H12ZM12 62V66H160V62V58H12V62ZM166 68V64H6V68V72H166V68ZM6 68H10V62H6H2V68H6ZM6 62V58H0V62V66H6V62ZM0 62H4V6H0H-4V62H0ZM0 6V10H6V6V2H0V6ZM6 6H10V0H6H2V6H6ZM6 0V4H166V0V-4H6V0ZM166 0H162V6H166H170V0H166ZM166 6V10H172V6V2H166V6ZM172 6H168V62H172H176V6H172ZM172 62V58H166V62V66H172V62ZM166 62H162V68H166H170V62H166Z" fill="#231809" mask="url(#path-1-inside-1_227_424)"/>
<path d="M160.001 12H166V56H160.001V62H12.001V6H160.001V12ZM12 56H6V12H12V56Z" fill="#341E09"/>
</svg>
