<?xml version="1.0" encoding="UTF-8"?>
<svg version="1.1" xmlns="http://www.w3.org/2000/svg" width="2048" height="1867">
<path d="M0 0 C144.87 0 289.74 0 439 0 C439 24.75 439 49.5 439 75 C511.27 75 583.54 75 658 75 C658 99.42 658 123.84 658 149 C706.51 149 755.02 149 805 149 C805 173.75 805 198.5 805 224 C877.27 224 949.54 224 1024 224 C1024 248.75 1024 273.5 1024 299 C1072.18 299 1120.36 299 1170 299 C1170 323.42 1170 347.84 1170 373 C1218.51 373 1267.02 373 1317 373 C1317 397.75 1317 422.5 1317 448 C1365.18 448 1413.36 448 1463 448 C1463 497.17 1463 546.34 1463 597 C1366.31 597 1269.62 597 1170 597 C1170 572.58 1170 548.16 1170 523 C1097.73 523 1025.46 523 951 523 C951 547.42 951 571.84 951 597 C975.09 597 999.18 597 1024 597 C1024 720.42 1024 843.84 1024 971 C999.91 971 975.82 971 951 971 C951 1020.17 951 1069.34 951 1120 C975.09 1120 999.18 1120 1024 1120 C1024 1144.75 1024 1169.5 1024 1195 C975.82 1195 927.64 1195 878 1195 C878 1219.75 878 1244.5 878 1270 C853.91 1270 829.82 1270 805 1270 C805 1319.17 805 1368.34 805 1419 C829.09 1419 853.18 1419 878 1419 C878 1468.17 878 1517.34 878 1568 C902.09 1568 926.18 1568 951 1568 C951 1592.75 951 1617.5 951 1643 C975.09 1643 999.18 1643 1024 1643 C1024 1692.17 1024 1741.34 1024 1792 C1048.09 1792 1072.18 1792 1097 1792 C1097 1816.75 1097 1841.5 1097 1867 C1048.82 1867 1000.64 1867 951 1867 C951 1842.25 951 1817.5 951 1792 C926.91 1792 902.82 1792 878 1792 C878 1742.83 878 1693.66 878 1643 C853.91 1643 829.82 1643 805 1643 C805 1618.25 805 1593.5 805 1568 C780.91 1568 756.82 1568 732 1568 C732 1518.83 732 1469.66 732 1419 C683.49 1419 634.98 1419 585 1419 C585 1443.75 585 1468.5 585 1494 C536.82 1494 488.64 1494 439 1494 C439 1518.42 439 1542.84 439 1568 C390.82 1568 342.64 1568 293 1568 C293 1666.67 293 1765.34 293 1867 C268.91 1867 244.82 1867 220 1867 C220 1768.33 220 1669.66 220 1568 C171.49 1568 122.98 1568 73 1568 C73 1543.58 73 1519.16 73 1494 C0.73 1494 -71.54 1494 -146 1494 C-146 1469.25 -146 1444.5 -146 1419 C-170.09 1419 -194.18 1419 -219 1419 C-219 1443.75 -219 1468.5 -219 1494 C-243.09 1494 -267.18 1494 -292 1494 C-292 1518.42 -292 1542.84 -292 1568 C-316.42 1568 -340.84 1568 -366 1568 C-366 1617.5 -366 1667 -366 1718 C-390.09 1718 -414.18 1718 -439 1718 C-439 1742.42 -439 1766.84 -439 1792 C-463.09 1792 -487.18 1792 -512 1792 C-512 1816.75 -512 1841.5 -512 1867 C-536.09 1867 -560.18 1867 -585 1867 C-585 1817.83 -585 1768.66 -585 1718 C-560.91 1718 -536.82 1718 -512 1718 C-512 1693.25 -512 1668.5 -512 1643 C-487.91 1643 -463.82 1643 -439 1643 C-439 1593.83 -439 1544.66 -439 1494 C-414.91 1494 -390.82 1494 -366 1494 C-366 1469.25 -366 1444.5 -366 1419 C-341.58 1419 -317.16 1419 -292 1419 C-292 1394.25 -292 1369.5 -292 1344 C-316.42 1344 -340.84 1344 -366 1344 C-366 1294.83 -366 1245.66 -366 1195 C-414.18 1195 -462.36 1195 -512 1195 C-512 948.49 -512 701.98 -512 448 C-487.91 448 -463.82 448 -439 448 C-439 398.83 -439 349.66 -439 299 C-414.91 299 -390.82 299 -366 299 C-366 274.25 -366 249.5 -366 224 C-341.58 224 -317.16 224 -292 224 C-292 199.25 -292 174.5 -292 149 C-243.82 149 -195.64 149 -146 149 C-146 124.58 -146 100.16 -146 75 C-97.82 75 -49.64 75 0 75 C0 50.25 0 25.5 0 0 Z " fill="#C3ECFE" transform="translate(585,0)"/>
<path d="M0 0 C120.78 0 241.56 0 366 0 C366 49.5 366 99 366 150 C414.18 150 462.36 150 512 150 C512 125.25 512 100.5 512 75 C487.91 75 463.82 75 439 75 C439 50.25 439 25.5 439 0 C752.83 0 1066.66 0 1390 0 C1390 24.75 1390 49.5 1390 75 C1365.91 75 1341.82 75 1317 75 C1317 124.5 1317 174 1317 225 C1341.09 225 1365.18 225 1390 225 C1390 249.42 1390 273.84 1390 299 C1414.09 299 1438.18 299 1463 299 C1463 323.75 1463 348.5 1463 374 C1414.82 374 1366.64 374 1317 374 C1317 398.75 1317 423.5 1317 449 C1292.91 449 1268.82 449 1244 449 C1244 498.17 1244 547.34 1244 598 C1268.09 598 1292.18 598 1317 598 C1317 647.17 1317 696.34 1317 747 C1341.09 747 1365.18 747 1390 747 C1390 771.75 1390 796.5 1390 822 C1414.09 822 1438.18 822 1463 822 C1463 871.17 1463 920.34 1463 971 C1487.09 971 1511.18 971 1536 971 C1536 995.75 1536 1020.5 1536 1046 C1487.82 1046 1439.64 1046 1390 1046 C1390 1021.25 1390 996.5 1390 971 C1365.91 971 1341.82 971 1317 971 C1317 921.83 1317 872.66 1317 822 C1292.91 822 1268.82 822 1244 822 C1244 797.25 1244 772.5 1244 747 C1219.91 747 1195.82 747 1171 747 C1171 697.83 1171 648.66 1171 598 C1122.49 598 1073.98 598 1024 598 C1024 622.75 1024 647.5 1024 673 C975.82 673 927.64 673 878 673 C878 697.42 878 721.84 878 747 C829.82 747 781.64 747 732 747 C732 845.67 732 944.34 732 1046 C707.91 1046 683.82 1046 659 1046 C659 947.33 659 848.66 659 747 C610.49 747 561.98 747 512 747 C512 722.58 512 698.16 512 673 C439.73 673 367.46 673 293 673 C293 648.25 293 623.5 293 598 C268.91 598 244.82 598 220 598 C220 622.75 220 647.5 220 673 C195.91 673 171.82 673 147 673 C147 697.42 147 721.84 147 747 C122.58 747 98.16 747 73 747 C73 796.5 73 846 73 897 C48.91 897 24.82 897 0 897 C0 921.42 0 945.84 0 971 C-24.09 971 -48.18 971 -73 971 C-73 995.75 -73 1020.5 -73 1046 C-97.09 1046 -121.18 1046 -146 1046 C-146 996.83 -146 947.66 -146 897 C-121.91 897 -97.82 897 -73 897 C-73 872.25 -73 847.5 -73 822 C-48.91 822 -24.82 822 0 822 C0 772.83 0 723.66 0 673 C24.09 673 48.18 673 73 673 C73 648.25 73 623.5 73 598 C97.42 598 121.84 598 147 598 C147 573.25 147 548.5 147 523 C122.58 523 98.16 523 73 523 C73 473.83 73 424.66 73 374 C24.82 374 -23.36 374 -73 374 C-73 324.83 -73 275.66 -73 225 C-48.91 225 -24.82 225 0 225 C0 150.75 0 76.5 0 0 Z " fill="#2FC07B" transform="translate(146,821)"/>
<path d="M0 0 C120.78 0 241.56 0 366 0 C366 49.5 366 99 366 150 C414.18 150 462.36 150 512 150 C512 125.25 512 100.5 512 75 C487.91 75 463.82 75 439 75 C439 50.25 439 25.5 439 0 C752.83 0 1066.66 0 1390 0 C1390 24.75 1390 49.5 1390 75 C1365.91 75 1341.82 75 1317 75 C1317 124.5 1317 174 1317 225 C882.39 225 447.78 225 0 225 C0 150.75 0 76.5 0 0 Z " fill="#38D483" transform="translate(146,821)"/>
<path d="M0 0 C482.79 0 965.58 0 1463 0 C1463 24.42 1463 48.84 1463 74 C1487.09 74 1511.18 74 1536 74 C1536 98.75 1536 123.5 1536 149 C1173.99 149 811.98 149 439 149 C439 173.75 439 198.5 439 224 C366.73 224 294.46 224 220 224 C220 199.25 220 174.5 220 149 C147.4 149 74.8 149 0 149 C0 99.83 0 50.66 0 0 Z " fill="#4A2E73" transform="translate(73,1046)"/>
<path d="M0 0 C482.79 0 965.58 0 1463 0 C1463 24.42 1463 48.84 1463 74 C1004.3 74 545.6 74 73 74 C73 98.75 73 123.5 73 149 C48.91 149 24.82 149 0 149 C0 99.83 0 50.66 0 0 Z " fill="#4E456E" transform="translate(73,1046)"/>
<path d="M0 0 C24.42 0 48.84 0 74 0 C74 24.75 74 49.5 74 75 C122.18 75 170.36 75 220 75 C220 99.42 220 123.84 220 149 C244.09 149 268.18 149 293 149 C293 173.75 293 198.5 293 224 C341.18 224 389.36 224 439 224 C439 248.75 439 273.5 439 299 C366.73 299 294.46 299 220 299 C220 274.25 220 249.5 220 224 C195.91 224 171.82 224 147 224 C147 248.75 147 273.5 147 299 C122.91 299 98.82 299 74 299 C74 323.42 74 347.84 74 373 C49.58 373 25.16 373 0 373 C0 422.5 0 472 0 523 C-24.09 523 -48.18 523 -73 523 C-73 547.42 -73 571.84 -73 597 C-97.09 597 -121.18 597 -146 597 C-146 621.75 -146 646.5 -146 672 C-170.09 672 -194.18 672 -219 672 C-219 622.83 -219 573.66 -219 523 C-194.91 523 -170.82 523 -146 523 C-146 498.25 -146 473.5 -146 448 C-121.91 448 -97.82 448 -73 448 C-73 398.83 -73 349.66 -73 299 C-48.91 299 -24.82 299 0 299 C0 274.25 0 249.5 0 224 C24.42 224 48.84 224 74 224 C74 199.25 74 174.5 74 149 C49.58 149 25.16 149 0 149 C0 99.83 0 50.66 0 0 Z " fill="#502B83" transform="translate(219,1195)"/>
<path d="M0 0 C48.51 0 97.02 0 147 0 C147 24.75 147 49.5 147 75 C171.09 75 195.18 75 220 75 C220 124.17 220 173.34 220 224 C244.09 224 268.18 224 293 224 C293 248.75 293 273.5 293 299 C317.09 299 341.18 299 366 299 C366 348.17 366 397.34 366 448 C390.09 448 414.18 448 439 448 C439 472.75 439 497.5 439 523 C390.82 523 342.64 523 293 523 C293 498.25 293 473.5 293 448 C268.91 448 244.82 448 220 448 C220 398.83 220 349.66 220 299 C195.91 299 171.82 299 147 299 C147 274.25 147 249.5 147 224 C122.91 224 98.82 224 74 224 C74 174.83 74 125.66 74 75 C49.58 75 25.16 75 0 75 C0 50.25 0 25.5 0 0 Z " fill="#666699" transform="translate(1243,1344)"/>
<path d="M0 0 C48.51 0 97.02 0 147 0 C147 24.75 147 49.5 147 75 C171.09 75 195.18 75 220 75 C220 173.34 220 271.68 220 373 C171.49 373 122.98 373 73 373 C73 323.83 73 274.66 73 224 C48.91 224 24.82 224 0 224 C0 150.08 0 76.16 0 0 Z " fill="#FCFFFF" transform="translate(1170,448)"/>
<path d="M0 0 C72.27 0 144.54 0 219 0 C219 24.75 219 49.5 219 75 C170.82 75 122.64 75 73 75 C73 99.42 73 123.84 73 149 C24.82 149 -23.36 149 -73 149 C-73 247.67 -73 346.34 -73 448 C-97.09 448 -121.18 448 -146 448 C-146 349.33 -146 250.66 -146 149 C-194.51 149 -243.02 149 -293 149 C-293 124.58 -293 100.16 -293 75 C-196.31 75 -99.62 75 0 75 C0 50.25 0 25.5 0 0 Z " fill="#ADC6FC" transform="translate(951,1419)"/>
<path d="M0 0 C24.42 0 48.84 0 74 0 C74 49.17 74 98.34 74 149 C49.58 149 25.16 149 0 149 C0 198.5 0 248 0 299 C-24.09 299 -48.18 299 -73 299 C-73 323.42 -73 347.84 -73 373 C-97.09 373 -121.18 373 -146 373 C-146 397.75 -146 422.5 -146 448 C-170.09 448 -194.18 448 -219 448 C-219 398.83 -219 349.66 -219 299 C-194.91 299 -170.82 299 -146 299 C-146 274.25 -146 249.5 -146 224 C-121.91 224 -97.82 224 -73 224 C-73 174.83 -73 125.66 -73 75 C-48.91 75 -24.82 75 0 75 C0 50.25 0 25.5 0 0 Z " fill="#553E78" transform="translate(219,1419)"/>
<path d="M0 0 C96.69 0 193.38 0 293 0 C293 24.75 293 49.5 293 75 C268.91 75 244.82 75 220 75 C220 99.42 220 123.84 220 149 C147.4 149 74.8 149 0 149 C0 99.83 0 50.66 0 0 Z " fill="#584780" transform="translate(1170,1195)"/>
<path d="M0 0 C48.51 0 97.02 0 147 0 C147 24.75 147 49.5 147 75 C171.09 75 195.18 75 220 75 C220 124.17 220 173.34 220 224 C171.82 224 123.64 224 74 224 C74 174.83 74 125.66 74 75 C49.58 75 25.16 75 0 75 C0 50.25 0 25.5 0 0 Z " fill="#55437B" transform="translate(1243,1344)"/>
<path d="M0 0 C24.09 0 48.18 0 73 0 C73 49.17 73 98.34 73 149 C-23.69 149 -120.38 149 -220 149 C-220 124.58 -220 100.16 -220 75 C-147.4 75 -74.8 75 0 75 C0 50.25 0 25.5 0 0 Z " fill="#BBE4FE" transform="translate(1975,448)"/>
<path d="M0 0 C24.09 0 48.18 0 73 0 C73 24.75 73 49.5 73 75 C121.18 75 169.36 75 219 75 C219 99.75 219 124.5 219 150 C146.73 150 74.46 150 0 150 C0 100.5 0 51 0 0 Z " fill="#AFCCFC" transform="translate(439,1344)"/>
<path d="M0 0 C48.18 0 96.36 0 146 0 C146 73.92 146 147.84 146 224 C121.91 224 97.82 224 73 224 C73 174.83 73 125.66 73 75 C48.91 75 24.82 75 0 75 C0 50.25 0 25.5 0 0 Z " fill="#4A3674" transform="translate(1390,1568)"/>
<path d="M0 0 C24.09 0 48.18 0 73 0 C73 98.67 73 197.34 73 299 C48.91 299 24.82 299 0 299 C0 200.33 0 101.66 0 0 Z " fill="#4D3291" transform="translate(805,1568)"/>
<path d="M0 0 C48.51 0 97.02 0 147 0 C147 49.5 147 99 147 150 C122.91 150 98.82 150 74 150 C74 125.25 74 100.5 74 75 C49.58 75 25.16 75 0 75 C0 50.25 0 25.5 0 0 Z " fill="#B7EF80" transform="translate(731,896)"/>
<path d="M0 0 C24.42 0 48.84 0 74 0 C74 24.75 74 49.5 74 75 C98.09 75 122.18 75 147 75 C147 99.42 147 123.84 147 149 C98.49 149 49.98 149 0 149 C0 99.83 0 50.66 0 0 Z " fill="#B3D6FC" transform="translate(219,1195)"/>
<path d="M0 0 C24.09 0 48.18 0 73 0 C73 24.75 73 49.5 73 75 C97.09 75 121.18 75 146 75 C146 99.75 146 124.5 146 150 C97.82 150 49.64 150 0 150 C0 100.5 0 51 0 0 Z " fill="#C5F393" transform="translate(512,821)"/>
<path d="M0 0 C48.18 0 96.36 0 146 0 C146 24.75 146 49.5 146 75 C121.91 75 97.82 75 73 75 C73 99.42 73 123.84 73 149 C48.91 149 24.82 149 0 149 C0 99.83 0 50.66 0 0 Z " fill="#B4D7FD" transform="translate(1317,1195)"/>
<path d="M0 0 C48.18 0 96.36 0 146 0 C146 49.17 146 98.34 146 149 C121.91 149 97.82 149 73 149 C73 124.25 73 99.5 73 74 C48.91 74 24.82 74 0 74 C0 49.58 0 25.16 0 0 Z " fill="#C4ECA0" transform="translate(585,1270)"/>
<path d="M0 0 C48.18 0 96.36 0 146 0 C146 24.42 146 48.84 146 74 C121.91 74 97.82 74 73 74 C73 98.75 73 123.5 73 149 C48.91 149 24.82 149 0 149 C0 99.83 0 50.66 0 0 Z " fill="#62547A" transform="translate(73,1046)"/>
<path d="M0 0 C48.51 0 97.02 0 147 0 C147 24.75 147 49.5 147 75 C98.49 75 49.98 75 0 75 C0 50.25 0 25.5 0 0 Z " fill="#41286F" transform="translate(1243,1344)"/>
<path d="M0 0 C48.51 0 97.02 0 147 0 C147 24.75 147 49.5 147 75 C98.49 75 49.98 75 0 75 C0 50.25 0 25.5 0 0 Z " fill="#513277" transform="translate(146,1120)"/>
<path d="M0 0 C48.51 0 97.02 0 147 0 C147 24.75 147 49.5 147 75 C98.49 75 49.98 75 0 75 C0 50.25 0 25.5 0 0 Z " fill="#7BF5AE" transform="translate(1243,821)"/>
<path d="M0 0 C48.18 0 96.36 0 146 0 C146 24.75 146 49.5 146 75 C97.82 75 49.64 75 0 75 C0 50.25 0 25.5 0 0 Z " fill="#BAE3FF" transform="translate(1536,448)"/>
<path d="M0 0 C48.18 0 96.36 0 146 0 C146 24.75 146 49.5 146 75 C97.82 75 49.64 75 0 75 C0 50.25 0 25.5 0 0 Z " fill="#D4FDFF" transform="translate(1609,373)"/>
<path d="M0 0 C48.51 0 97.02 0 147 0 C147 24.42 147 48.84 147 74 C98.49 74 49.98 74 0 74 C0 49.58 0 25.16 0 0 Z " fill="#EBFCFF" transform="translate(1243,747)"/>
<path d="M0 0 C48.51 0 97.02 0 147 0 C147 24.42 147 48.84 147 74 C98.49 74 49.98 74 0 74 C0 49.58 0 25.16 0 0 Z " fill="#B6DCFE" transform="translate(1755,523)"/>
<path d="M0 0 C24.09 0 48.18 0 73 0 C73 49.17 73 98.34 73 149 C48.91 149 24.82 149 0 149 C0 99.83 0 50.66 0 0 Z " fill="#4D3671" transform="translate(0,1718)"/>
<path d="M0 0 C48.18 0 96.36 0 146 0 C146 24.42 146 48.84 146 74 C97.82 74 49.64 74 0 74 C0 49.58 0 25.16 0 0 Z " fill="#D5FDFF" transform="translate(1463,299)"/>
<path d="M0 0 C24.42 0 48.84 0 74 0 C74 24.75 74 49.5 74 75 C49.58 75 25.16 75 0 75 C0 50.25 0 25.5 0 0 Z " fill="#473369" transform="translate(219,1419)"/>
<path d="M0 0 C24.42 0 48.84 0 74 0 C74 24.75 74 49.5 74 75 C49.58 75 25.16 75 0 75 C0 50.25 0 25.5 0 0 Z " fill="#36D181" transform="translate(1243,1195)"/>
<path d="M0 0 C24.42 0 48.84 0 74 0 C74 24.42 74 48.84 74 74 C49.58 74 25.16 74 0 74 C0 49.58 0 25.16 0 0 Z " fill="#5A4981" transform="translate(1243,1270)"/>
<path d="M0 0 C24.42 0 48.84 0 74 0 C74 24.42 74 48.84 74 74 C49.58 74 25.16 74 0 74 C0 49.58 0 25.16 0 0 Z " fill="#574D73" transform="translate(219,1046)"/>
<path d="M0 0 C24.09 0 48.18 0 73 0 C73 24.75 73 49.5 73 75 C48.91 75 24.82 75 0 75 C0 50.25 0 25.5 0 0 Z " fill="#000000" transform="translate(1609,1792)"/>
<path d="M0 0 C24.09 0 48.18 0 73 0 C73 24.75 73 49.5 73 75 C48.91 75 24.82 75 0 75 C0 50.25 0 25.5 0 0 Z " fill="#37255D" transform="translate(1536,1792)"/>
<path d="M0 0 C24.09 0 48.18 0 73 0 C73 24.75 73 49.5 73 75 C48.91 75 24.82 75 0 75 C0 50.25 0 25.5 0 0 Z " fill="#4F307D" transform="translate(146,1643)"/>
<path d="M0 0 C24.09 0 48.18 0 73 0 C73 24.75 73 49.5 73 75 C48.91 75 24.82 75 0 75 C0 50.25 0 25.5 0 0 Z " fill="#3A2565" transform="translate(1390,1568)"/>
<path d="M0 0 C24.09 0 48.18 0 73 0 C73 24.75 73 49.5 73 75 C48.91 75 24.82 75 0 75 C0 50.25 0 25.5 0 0 Z " fill="#5F4A84" transform="translate(146,1568)"/>
<path d="M0 0 C24.09 0 48.18 0 73 0 C73 24.75 73 49.5 73 75 C48.91 75 24.82 75 0 75 C0 50.25 0 25.5 0 0 Z " fill="#808080" transform="translate(1390,1419)"/>
<path d="M0 0 C24.09 0 48.18 0 73 0 C73 24.75 73 49.5 73 75 C48.91 75 24.82 75 0 75 C0 50.25 0 25.5 0 0 Z " fill="#523380" transform="translate(293,1419)"/>
<path d="M0 0 C24.09 0 48.18 0 73 0 C73 24.75 73 49.5 73 75 C48.91 75 24.82 75 0 75 C0 50.25 0 25.5 0 0 Z " fill="#B0CFFD" transform="translate(1170,1344)"/>
<path d="M0 0 C24.09 0 48.18 0 73 0 C73 24.75 73 49.5 73 75 C48.91 75 24.82 75 0 75 C0 50.25 0 25.5 0 0 Z " fill="#A9D584" transform="translate(658,1344)"/>
<path d="M0 0 C24.09 0 48.18 0 73 0 C73 24.75 73 49.5 73 75 C48.91 75 24.82 75 0 75 C0 50.25 0 25.5 0 0 Z " fill="#5D4682" transform="translate(293,1344)"/>
<path d="M0 0 C24.09 0 48.18 0 73 0 C73 24.75 73 49.5 73 75 C48.91 75 24.82 75 0 75 C0 50.25 0 25.5 0 0 Z " fill="#553682" transform="translate(439,1195)"/>
<path d="M0 0 C24.09 0 48.18 0 73 0 C73 24.75 73 49.5 73 75 C48.91 75 24.82 75 0 75 C0 50.25 0 25.5 0 0 Z " fill="#463169" transform="translate(366,1195)"/>
<path d="M0 0 C24.09 0 48.18 0 73 0 C73 24.75 73 49.5 73 75 C48.91 75 24.82 75 0 75 C0 50.25 0 25.5 0 0 Z " fill="#28B375" transform="translate(293,1195)"/>
<path d="M0 0 C24.09 0 48.18 0 73 0 C73 24.75 73 49.5 73 75 C48.91 75 24.82 75 0 75 C0 50.25 0 25.5 0 0 Z " fill="#5A3F79" transform="translate(146,1120)"/>
<path d="M0 0 C24.09 0 48.18 0 73 0 C73 24.75 73 49.5 73 75 C48.91 75 24.82 75 0 75 C0 50.25 0 25.5 0 0 Z " fill="#B7EF80" transform="translate(805,971)"/>
<path d="M0 0 C24.09 0 48.18 0 73 0 C73 24.75 73 49.5 73 75 C48.91 75 24.82 75 0 75 C0 50.25 0 25.5 0 0 Z " fill="#D6FAA8" transform="translate(805,896)"/>
<path d="M0 0 C24.09 0 48.18 0 73 0 C73 24.75 73 49.5 73 75 C48.91 75 24.82 75 0 75 C0 50.25 0 25.5 0 0 Z " fill="#BEF188" transform="translate(512,821)"/>
<path d="M0 0 C24.09 0 48.18 0 73 0 C73 24.75 73 49.5 73 75 C48.91 75 24.82 75 0 75 C0 50.25 0 25.5 0 0 Z " fill="#BFECFF" transform="translate(1829,373)"/>
<path d="M0 0 C24.09 0 48.18 0 73 0 C73 24.75 73 49.5 73 75 C48.91 75 24.82 75 0 75 C0 50.25 0 25.5 0 0 Z " fill="#C9F6FF" transform="translate(1536,373)"/>
<path d="M0 0 C24.09 0 48.18 0 73 0 C73 24.75 73 49.5 73 75 C48.91 75 24.82 75 0 75 C0 50.25 0 25.5 0 0 Z " fill="#CDF3FE" transform="translate(1390,373)"/>
<path d="M0 0 C24.09 0 48.18 0 73 0 C73 24.75 73 49.5 73 75 C48.91 75 24.82 75 0 75 C0 50.25 0 25.5 0 0 Z " fill="#B9E1FE" transform="translate(1536,224)"/>
<path d="M0 0 C24.09 0 48.18 0 73 0 C73 24.75 73 49.5 73 75 C48.91 75 24.82 75 0 75 C0 50.25 0 25.5 0 0 Z " fill="#CCF7FF" transform="translate(1390,224)"/>
<path d="M0 0 C24.09 0 48.18 0 73 0 C73 24.42 73 48.84 73 74 C48.91 74 24.82 74 0 74 C0 49.58 0 25.16 0 0 Z " fill="#5E5081" transform="translate(1536,1718)"/>
<path d="M0 0 C24.09 0 48.18 0 73 0 C73 24.42 73 48.84 73 74 C48.91 74 24.82 74 0 74 C0 49.58 0 25.16 0 0 Z " fill="#36235D" transform="translate(1463,1718)"/>
<path d="M0 0 C24.09 0 48.18 0 73 0 C73 24.42 73 48.84 73 74 C48.91 74 24.82 74 0 74 C0 49.58 0 25.16 0 0 Z " fill="#5C4381" transform="translate(73,1718)"/>
<path d="M0 0 C24.09 0 48.18 0 73 0 C73 24.42 73 48.84 73 74 C48.91 74 24.82 74 0 74 C0 49.58 0 25.16 0 0 Z " fill="#422D63" transform="translate(0,1718)"/>
<path d="M0 0 C24.09 0 48.18 0 73 0 C73 24.42 73 48.84 73 74 C48.91 74 24.82 74 0 74 C0 49.58 0 25.16 0 0 Z " fill="#5D4E82" transform="translate(1390,1494)"/>
<path d="M0 0 C24.09 0 48.18 0 73 0 C73 24.42 73 48.84 73 74 C48.91 74 24.82 74 0 74 C0 49.58 0 25.16 0 0 Z " fill="#372260" transform="translate(1317,1494)"/>
<path d="M0 0 C24.09 0 48.18 0 73 0 C73 24.42 73 48.84 73 74 C48.91 74 24.82 74 0 74 C0 49.58 0 25.16 0 0 Z " fill="#412C62" transform="translate(146,1494)"/>
<path d="M0 0 C24.09 0 48.18 0 73 0 C73 24.42 73 48.84 73 74 C48.91 74 24.82 74 0 74 C0 49.58 0 25.16 0 0 Z " fill="#381F67" transform="translate(1170,1270)"/>
<path d="M0 0 C24.09 0 48.18 0 73 0 C73 24.42 73 48.84 73 74 C48.91 74 24.82 74 0 74 C0 49.58 0 25.16 0 0 Z " fill="#A9D584" transform="translate(585,1270)"/>
<path d="M0 0 C24.09 0 48.18 0 73 0 C73 24.42 73 48.84 73 74 C48.91 74 24.82 74 0 74 C0 49.58 0 25.16 0 0 Z " fill="#624B88" transform="translate(366,1270)"/>
<path d="M0 0 C24.09 0 48.18 0 73 0 C73 24.42 73 48.84 73 74 C48.91 74 24.82 74 0 74 C0 49.58 0 25.16 0 0 Z " fill="#C1ECFF" transform="translate(1902,523)"/>
<path d="M0 0 C24.09 0 48.18 0 73 0 C73 24.42 73 48.84 73 74 C48.91 74 24.82 74 0 74 C0 49.58 0 25.16 0 0 Z " fill="#C4F1FF" transform="translate(1609,299)"/>
</svg>
